<mxfile host="Electron" modified="2024-04-02T17:01:05.879Z" agent="Mozilla/5.0 (Windows NT 10.0; Win64; x64) AppleWebKit/537.36 (KHTML, like Gecko) draw.io/24.1.0 Chrome/120.0.6099.109 Electron/28.1.0 Safari/537.36" etag="YEWXfMTwZbxW7slS7uI5" version="24.1.0" type="device">
  <diagram name="Сторінка-1" id="Y74XBqJtE28pwzu7_Kiy">
    <mxGraphModel dx="1166" dy="945" grid="1" gridSize="10" guides="1" tooltips="1" connect="1" arrows="1" fold="1" page="1" pageScale="1" pageWidth="827" pageHeight="1169" math="0" shadow="0">
      <root>
        <mxCell id="0" />
        <mxCell id="1" parent="0" />
        <mxCell id="Mn8qz_N6dABUngPOHRxc-1" value="Випускник" style="shape=umlActor;verticalLabelPosition=bottom;verticalAlign=top;html=1;outlineConnect=0;" vertex="1" parent="1">
          <mxGeometry x="120" y="50" width="30" height="60" as="geometry" />
        </mxCell>
        <mxCell id="Mn8qz_N6dABUngPOHRxc-3" value="Платформа ЗНО" style="rounded=0;whiteSpace=wrap;html=1;" vertex="1" parent="1">
          <mxGeometry x="240" y="60" width="120" height="60" as="geometry" />
        </mxCell>
        <mxCell id="Mn8qz_N6dABUngPOHRxc-4" value="Система тестування" style="rounded=0;whiteSpace=wrap;html=1;" vertex="1" parent="1">
          <mxGeometry x="460" y="60" width="120" height="60" as="geometry" />
        </mxCell>
        <mxCell id="Mn8qz_N6dABUngPOHRxc-5" value="Система аналітики" style="rounded=0;whiteSpace=wrap;html=1;" vertex="1" parent="1">
          <mxGeometry x="690" y="60" width="120" height="60" as="geometry" />
        </mxCell>
        <mxCell id="Mn8qz_N6dABUngPOHRxc-6" value="" style="endArrow=none;dashed=1;html=1;rounded=0;" edge="1" parent="1" target="Mn8qz_N6dABUngPOHRxc-4">
          <mxGeometry width="50" height="50" relative="1" as="geometry">
            <mxPoint x="520" y="500" as="sourcePoint" />
            <mxPoint x="480" y="290" as="targetPoint" />
          </mxGeometry>
        </mxCell>
        <mxCell id="Mn8qz_N6dABUngPOHRxc-7" value="" style="endArrow=none;dashed=1;html=1;rounded=0;" edge="1" parent="1">
          <mxGeometry width="50" height="50" relative="1" as="geometry">
            <mxPoint x="280" y="500" as="sourcePoint" />
            <mxPoint x="280" y="120" as="targetPoint" />
          </mxGeometry>
        </mxCell>
        <mxCell id="Mn8qz_N6dABUngPOHRxc-8" value="" style="endArrow=none;dashed=1;html=1;rounded=0;" edge="1" parent="1">
          <mxGeometry width="50" height="50" relative="1" as="geometry">
            <mxPoint x="760" y="500" as="sourcePoint" />
            <mxPoint x="760" y="120" as="targetPoint" />
          </mxGeometry>
        </mxCell>
        <mxCell id="Mn8qz_N6dABUngPOHRxc-9" value="" style="endArrow=none;dashed=1;html=1;rounded=0;" edge="1" parent="1">
          <mxGeometry width="50" height="50" relative="1" as="geometry">
            <mxPoint x="134.5" y="500" as="sourcePoint" />
            <mxPoint x="134.5" y="120" as="targetPoint" />
          </mxGeometry>
        </mxCell>
        <mxCell id="Mn8qz_N6dABUngPOHRxc-10" value="&lt;span style=&quot;color: rgb(31, 31, 31); font-family: &amp;quot;Google Sans&amp;quot;, &amp;quot;Helvetica Neue&amp;quot;, sans-serif; text-align: left; text-wrap: wrap;&quot;&gt;&lt;font style=&quot;font-size: 12px;&quot;&gt;1. Запит тесту&lt;/font&gt;&lt;/span&gt;" style="html=1;verticalAlign=bottom;endArrow=block;curved=0;rounded=0;" edge="1" parent="1">
          <mxGeometry width="80" relative="1" as="geometry">
            <mxPoint x="140" y="180" as="sourcePoint" />
            <mxPoint x="280" y="180" as="targetPoint" />
            <mxPoint as="offset" />
          </mxGeometry>
        </mxCell>
        <mxCell id="Mn8qz_N6dABUngPOHRxc-11" value="&lt;span style=&quot;color: rgb(31, 31, 31); font-family: &amp;quot;Google Sans&amp;quot;, &amp;quot;Helvetica Neue&amp;quot;, sans-serif; text-align: left; text-wrap: wrap;&quot;&gt;&lt;font style=&quot;font-size: 12px;&quot;&gt;2. Генерація тесту&lt;/font&gt;&lt;/span&gt;" style="html=1;verticalAlign=bottom;endArrow=block;curved=0;rounded=0;" edge="1" parent="1">
          <mxGeometry width="80" relative="1" as="geometry">
            <mxPoint x="280" y="200" as="sourcePoint" />
            <mxPoint x="520" y="200" as="targetPoint" />
            <mxPoint as="offset" />
          </mxGeometry>
        </mxCell>
        <mxCell id="Mn8qz_N6dABUngPOHRxc-13" value="&lt;span style=&quot;color: rgb(31, 31, 31); font-family: &amp;quot;Google Sans&amp;quot;, &amp;quot;Helvetica Neue&amp;quot;, sans-serif; text-align: left; text-wrap: wrap;&quot;&gt;&lt;font style=&quot;font-size: 12px;&quot;&gt;4.Проходження тесту&lt;/font&gt;&lt;/span&gt;" style="html=1;verticalAlign=bottom;endArrow=block;curved=0;rounded=0;" edge="1" parent="1">
          <mxGeometry width="80" relative="1" as="geometry">
            <mxPoint x="140" y="280" as="sourcePoint" />
            <mxPoint x="280" y="280" as="targetPoint" />
            <mxPoint as="offset" />
          </mxGeometry>
        </mxCell>
        <mxCell id="Mn8qz_N6dABUngPOHRxc-14" value="&lt;span style=&quot;color: rgb(31, 31, 31); font-family: &amp;quot;Google Sans&amp;quot;, &amp;quot;Helvetica Neue&amp;quot;, sans-serif; text-align: left; text-wrap: wrap;&quot;&gt;&lt;font style=&quot;font-size: 12px;&quot;&gt;3. Надання тесту&lt;/font&gt;&lt;/span&gt;" style="html=1;verticalAlign=bottom;endArrow=open;dashed=1;endSize=8;curved=0;rounded=0;" edge="1" parent="1">
          <mxGeometry x="-0.0833" relative="1" as="geometry">
            <mxPoint x="520" y="260" as="sourcePoint" />
            <mxPoint x="280" y="260" as="targetPoint" />
            <mxPoint as="offset" />
          </mxGeometry>
        </mxCell>
        <mxCell id="Mn8qz_N6dABUngPOHRxc-15" value="&lt;span style=&quot;color: rgb(31, 31, 31); font-family: &amp;quot;Google Sans&amp;quot;, &amp;quot;Helvetica Neue&amp;quot;, sans-serif; text-align: left; text-wrap: wrap;&quot;&gt;&lt;font style=&quot;font-size: 12px;&quot;&gt;5. Збір результатів тесту&lt;/font&gt;&lt;/span&gt;" style="html=1;verticalAlign=bottom;endArrow=block;curved=0;rounded=0;" edge="1" parent="1">
          <mxGeometry width="80" relative="1" as="geometry">
            <mxPoint x="280" y="320" as="sourcePoint" />
            <mxPoint x="520" y="320" as="targetPoint" />
            <mxPoint as="offset" />
          </mxGeometry>
        </mxCell>
        <mxCell id="Mn8qz_N6dABUngPOHRxc-17" value="&lt;span style=&quot;color: rgb(31, 31, 31); font-family: &amp;quot;Google Sans&amp;quot;, &amp;quot;Helvetica Neue&amp;quot;, sans-serif; text-align: left; text-wrap: wrap;&quot;&gt;&lt;font style=&quot;font-size: 12px;&quot;&gt;6.&amp;nbsp; Надання тесту&lt;/font&gt;&lt;/span&gt;" style="html=1;verticalAlign=bottom;endArrow=open;dashed=1;endSize=8;curved=0;rounded=0;" edge="1" parent="1">
          <mxGeometry relative="1" as="geometry">
            <mxPoint x="520" y="380" as="sourcePoint" />
            <mxPoint x="280" y="380" as="targetPoint" />
          </mxGeometry>
        </mxCell>
        <mxCell id="Mn8qz_N6dABUngPOHRxc-18" value="&lt;font style=&quot;font-size: 12px;&quot;&gt;&lt;span style=&quot;color: rgb(31, 31, 31); font-family: &amp;quot;Google Sans&amp;quot;, &amp;quot;Helvetica Neue&amp;quot;, sans-serif; text-align: left; text-wrap: wrap;&quot;&gt;&lt;font style=&quot;&quot;&gt;7.&amp;nbsp;&lt;/font&gt;&lt;/span&gt;&lt;span style=&quot;color: rgb(31, 31, 31); font-family: &amp;quot;Google Sans&amp;quot;, &amp;quot;Helvetica Neue&amp;quot;, sans-serif; text-align: left; text-wrap: wrap;&quot;&gt;Надання результатів тесту&lt;/span&gt;&lt;/font&gt;" style="html=1;verticalAlign=bottom;endArrow=open;dashed=1;endSize=8;curved=0;rounded=0;" edge="1" parent="1">
          <mxGeometry relative="1" as="geometry">
            <mxPoint x="280" y="410" as="sourcePoint" />
            <mxPoint x="140" y="410" as="targetPoint" />
            <mxPoint as="offset" />
          </mxGeometry>
        </mxCell>
        <mxCell id="Mn8qz_N6dABUngPOHRxc-19" value="&lt;font style=&quot;font-size: 12px;&quot;&gt;&lt;span style=&quot;color: rgb(31, 31, 31); font-family: &amp;quot;Google Sans&amp;quot;, &amp;quot;Helvetica Neue&amp;quot;, sans-serif; text-align: left; text-wrap: wrap;&quot;&gt;&lt;font style=&quot;&quot;&gt;8.З&lt;/font&gt;&lt;/span&gt;&lt;span style=&quot;color: rgb(31, 31, 31); font-family: &amp;quot;Google Sans&amp;quot;, &amp;quot;Helvetica Neue&amp;quot;, sans-serif; text-align: left; text-wrap: wrap;&quot;&gt;берігання результатів тесту&lt;/span&gt;&lt;/font&gt;" style="html=1;verticalAlign=bottom;endArrow=block;curved=0;rounded=0;" edge="1" parent="1">
          <mxGeometry width="80" relative="1" as="geometry">
            <mxPoint x="280" y="430" as="sourcePoint" />
            <mxPoint x="760" y="430" as="targetPoint" />
            <mxPoint as="offset" />
          </mxGeometry>
        </mxCell>
        <mxCell id="Mn8qz_N6dABUngPOHRxc-20" value="&lt;div style=&quot;text-align: left;&quot;&gt;&lt;font style=&quot;font-size: 12px;&quot;&gt;&lt;font face=&quot;Google Sans, Helvetica Neue, sans-serif&quot; color=&quot;#1f1f1f&quot;&gt;&lt;span style=&quot;text-wrap: wrap;&quot;&gt;9.&amp;nbsp;&lt;/span&gt;&lt;/font&gt;&lt;span style=&quot;color: rgb(31, 31, 31); font-family: &amp;quot;Google Sans&amp;quot;, &amp;quot;Helvetica Neue&amp;quot;, sans-serif; text-wrap: wrap;&quot;&gt;Формування рекомендацій&lt;/span&gt;&lt;/font&gt;&lt;/div&gt;" style="html=1;verticalAlign=bottom;endArrow=open;dashed=1;endSize=8;curved=0;rounded=0;" edge="1" parent="1">
          <mxGeometry relative="1" as="geometry">
            <mxPoint x="760" y="470" as="sourcePoint" />
            <mxPoint x="280" y="470" as="targetPoint" />
            <mxPoint as="offset" />
          </mxGeometry>
        </mxCell>
        <mxCell id="Mn8qz_N6dABUngPOHRxc-21" value="&lt;div style=&quot;text-align: left;&quot;&gt;&lt;font style=&quot;font-size: 12px;&quot;&gt;&lt;font face=&quot;Google Sans, Helvetica Neue, sans-serif&quot; color=&quot;#1f1f1f&quot;&gt;&lt;span style=&quot;text-wrap: wrap;&quot;&gt;10.&amp;nbsp;&lt;/span&gt;&lt;/font&gt;&lt;span style=&quot;color: rgb(31, 31, 31); font-family: &amp;quot;Google Sans&amp;quot;, &amp;quot;Helvetica Neue&amp;quot;, sans-serif; text-wrap: wrap;&quot;&gt;Надання рекомендацій&lt;/span&gt;&lt;/font&gt;&lt;/div&gt;" style="html=1;verticalAlign=bottom;endArrow=open;dashed=1;endSize=8;curved=0;rounded=0;" edge="1" parent="1">
          <mxGeometry relative="1" as="geometry">
            <mxPoint x="280" y="490" as="sourcePoint" />
            <mxPoint x="140" y="490" as="targetPoint" />
            <mxPoint as="offset" />
          </mxGeometry>
        </mxCell>
      </root>
    </mxGraphModel>
  </diagram>
</mxfile>
